<svg width="64" height="64" viewBox="0 0 64 64" fill="none" xmlns="http://www.w3.org/2000/svg">
<g clip-path="url(#clip0_112_2)">
<path d="M56.842 7.158C47.316 -2.405 31.94 -2.367 22.414 7.158C14.389 15.184 12.964 27.598 18.889 37.161L16.376 39.711L15.02 45.855L19.234 50.069L24.327 47.661L26.839 45.111C31.5014 48.0038 37.0069 49.2303 42.4563 48.59C47.9058 47.9498 52.9771 45.4807 56.842 41.586C66.405 32.06 66.367 16.684 56.842 7.158V7.158Z" fill="#242833"/>
<path d="M24.327 47.661L26.839 45.111C31.5014 48.0038 37.0069 49.2303 42.4563 48.59C47.9058 47.9498 52.9771 45.4807 56.842 41.586C66.405 32.06 66.367 16.684 56.842 7.158L16.582 47.418L19.234 50.069L24.327 47.661Z" fill="#0B0C12"/>
<path d="M54.213 9.787C52.2998 7.86878 50.0264 6.3476 47.5234 5.31088C45.0204 4.27415 42.3372 3.74234 39.628 3.746C28.236 3.746 19 12.98 19 24.372C18.9964 27.0813 19.5283 29.7647 20.565 32.2678C21.6017 34.771 23.1229 37.0446 25.041 38.958C26.9545 40.876 29.2282 42.3969 31.7313 43.4335C34.2345 44.47 36.9177 45.0017 39.627 44.998C51.019 44.998 60.253 35.764 60.253 24.372C60.2567 21.6628 59.7249 18.9796 58.6881 16.4766C57.6514 13.9736 56.1302 11.7002 54.212 9.787H54.213Z" fill="#18A0FB"/>
<path d="M60.254 24.372C60.2576 21.6628 59.7258 18.9796 58.6891 16.4766C57.6524 13.9736 56.1312 11.7002 54.213 9.787L25.043 38.957C26.956 40.8753 29.2292 42.3966 31.732 43.4337C34.2348 44.4708 36.9178 45.003 39.627 45C51.019 45 60.253 35.765 60.253 24.373L60.254 24.372Z" fill="#068BE4"/>
<path d="M56.239 23.41C56.055 23.103 53.259 18.496 48.958 15.042C46.328 12.929 43.136 11.246 39.628 11.246C30.386 11.246 23.314 22.915 23.018 23.411L22.442 24.372L23.017 25.333C23.201 25.642 25.997 30.249 30.297 33.703C32.928 35.815 36.12 37.498 39.627 37.498C48.87 37.498 55.942 25.83 56.239 25.333L56.813 24.373L56.239 23.411V23.41Z" fill="#E6EAF0"/>
<path d="M56.239 25.333L56.813 24.373L56.239 23.411C56.055 23.103 53.259 18.496 48.958 15.042L30.298 33.702C32.928 35.815 36.12 37.498 39.628 37.498C48.87 37.498 55.942 25.83 56.238 25.333H56.239Z" fill="#CED3D9"/>
<path d="M43.604 20.396C43.0827 19.8726 42.463 19.4574 41.7807 19.1742C41.0983 18.8911 40.3668 18.7455 39.628 18.746C38.1364 18.7476 36.7063 19.3408 35.6516 20.3956C34.5969 21.4503 34.0036 22.8804 34.002 24.372C34.002 25.923 34.633 27.33 35.652 28.348C36.1734 28.8713 36.7931 29.2865 37.4754 29.5696C38.1577 29.8528 38.8893 29.9984 39.628 29.998C41.1195 29.9961 42.5493 29.4028 43.6038 28.3481C44.6583 27.2934 45.2514 25.8635 45.253 24.372C45.253 22.822 44.623 21.415 43.604 20.396Z" fill="#18A0FB"/>
<path d="M45.253 24.372C45.253 22.822 44.623 21.415 43.604 20.396L35.652 28.348C36.1734 28.8713 36.793 29.2865 37.4754 29.5697C38.1577 29.8528 38.8892 29.9984 39.628 29.998C41.1194 29.9961 42.5492 29.4028 43.6038 28.3481C44.6583 27.2934 45.2514 25.8634 45.253 24.372V24.372Z" fill="#068BE4"/>
<path d="M40.954 23.046C40.7361 22.8272 40.4675 22.6657 40.1722 22.5756C39.8768 22.4855 39.5638 22.4697 39.2609 22.5297C38.9579 22.5896 38.6745 22.7234 38.4357 22.9191C38.1969 23.1149 38.0101 23.3666 37.8919 23.6519C37.7737 23.9371 37.7277 24.2472 37.7581 24.5545C37.7884 24.8617 37.8942 25.1568 38.0659 25.4134C38.2376 25.67 38.4701 25.8803 38.7426 26.0255C39.0151 26.1708 39.3192 26.2465 39.628 26.246C39.9985 26.2454 40.3605 26.1351 40.6684 25.9291C40.9763 25.723 41.2162 25.4304 41.3581 25.0882C41.4999 24.7459 41.5372 24.3693 41.4653 24.0059C41.3934 23.6425 41.2155 23.3085 40.954 23.046V23.046Z" fill="#242833"/>
<path d="M41.503 24.372C41.503 23.855 41.293 23.386 40.953 23.046L38.303 25.698C38.5654 25.9595 38.8994 26.1374 39.2629 26.2093C39.6263 26.2812 40.0029 26.2439 40.3451 26.102C40.6874 25.9602 40.98 25.7202 41.186 25.4124C41.3921 25.1045 41.5024 24.7425 41.503 24.372Z" fill="#0B0C12"/>
<path d="M20.333 43.667L16.376 39.71L0 56.049L3.975 60.025L7.951 64L24.327 47.661L20.333 43.667Z" fill="#242833"/>
<path d="M24.327 47.661L20.333 43.667L3.97498 60.025L7.95098 64L24.327 47.661Z" fill="#0B0C12"/>
</g>
<defs>
<clipPath id="clip0_112_2">
<rect width="64" height="64" fill="white"/>
</clipPath>
</defs>
</svg>
