<svg width="64" height="64" viewBox="0 0 64 64" fill="none" xmlns="http://www.w3.org/2000/svg">
<path d="M64 14.454V56.242H0V14.454L3.75 10.667H60.25L64 14.454Z" fill="#E6EAF0"/>
<path d="M64 14.454V56.242H32V10.667H60.25L64 14.454Z" fill="#CED3D9"/>
<path d="M0 0H64V15.515H0V0Z" fill="#242833"/>
<path d="M32 0H64V15.515H32V0Z" fill="#0B0C12"/>
<path d="M7.758 5.818H11.443V9.697H7.758V5.818ZM15.128 5.818H18.813V9.697H15.128V5.818ZM22.497 5.818H26.182V9.697H22.497V5.818Z" fill="#18A0FB"/>
<path d="M45.576 42.245V64H34.355V60.29H30.615V64H19.394V42.245L30.764 32.97H33.869L45.576 42.245Z" fill="#18A0FB"/>
<path d="M10 22H51.697V25.879H10V22Z" fill="#CED3D9"/>
<path d="M32 22H52.364V25.879H32V22Z" fill="#E6EAF0"/>
<path d="M45.576 42.245V64H33.939V60.29H32V32.97H33.435L45.576 42.245Z" fill="#068BE4"/>
<path d="M30.061 45.576H33.939V49.455H30.061V45.576Z" fill="#EFEFF4"/>
<path d="M32 45.576H33.939V49.455H32V45.576Z" fill="#DADAE5"/>
<path d="M50.424 45.779L47.972 48.485L32.485 34.959L16.997 48.485L14.545 45.779L32.485 30.061L50.424 45.779Z" fill="#676E74"/>
<path d="M32 30.061L50.424 45.779L47.906 48.485L32 34.959V30.061Z" fill="#242833"/>
</svg>
