<svg width="64" height="64" viewBox="0 0 64 64" fill="none" xmlns="http://www.w3.org/2000/svg">
<path d="M26.375 52.625H37.625V64H26.375V52.625Z" fill="#242833"/>
<path d="M32 52.625H37.625V64H32V52.625Z" fill="#0B0C12"/>
<path d="M22.625 47H41.375V56.375H22.625V47Z" fill="#0B0C12"/>
<path d="M32 47H41.375V56.375H32V47Z" fill="#242833"/>
<path d="M45.012 36.725C42.687 38.638 41.375 41.337 41.375 44.15V47H22.625V44.15C22.625 41.3 21.387 38.638 19.325 37.025C14.263 33.087 11.375 27.163 11.375 20.75C11.3706 17.6823 12.0519 14.6524 13.3691 11.8818C14.6863 9.11129 16.6061 6.67017 18.988 4.737C22.7 1.737 27.238 0 32 0C33.462 0 34.962 0.15 36.425 0.45C44.525 2.138 50.9 8.9 52.325 17.113C53.6 24.613 50.9 31.963 45.012 36.725V36.725Z" fill="#18A0FB"/>
<path d="M45.012 36.725C42.687 38.638 41.375 41.337 41.375 44.15V47H32V0C33.462 0 34.962 0.15 36.425 0.45C44.525 2.138 50.9 8.9 52.325 17.113C53.6 24.613 50.9 31.963 45.012 36.725V36.725Z" fill="#068BE4"/>
<path d="M18.875 45.125H45.125V48.875H18.875V45.125Z" fill="#242833"/>
<path d="M39.956 10.143L42.607 12.794L38.628 16.772L35.977 14.121L39.956 10.143Z" fill="#CED3D9"/>
<path d="M25.372 24.727L28.023 27.378L24.044 31.357L21.393 28.706L25.372 24.727ZM30.125 28.25H33.875V33.875H30.125V28.25Z" fill="#E6EAF0"/>
<path d="M38.628 24.727L42.607 28.706L39.956 31.357L35.977 27.378L38.628 24.727ZM39.5 18.875H45.125V22.625H39.5V18.875Z" fill="#CED3D9"/>
<path d="M24.044 10.143L28.023 14.122L25.372 16.772L21.393 12.794L24.044 10.143ZM18.875 18.875H24.5V22.625H18.875V18.875ZM30.125 7.625H33.875V13.25H30.125V7.625Z" fill="#E6EAF0"/>
<path d="M0 18.875H7.625V22.625H0V18.875ZM6.585 14.81L0.835 11.06L2.915 7.94L8.665 11.69L6.585 14.81ZM2.915 33.56L0.835 30.44L6.585 26.69L8.665 29.81L2.915 33.56Z" fill="#18A0FB"/>
<path d="M56.375 18.875H64V22.625H56.375V18.875ZM61.085 33.56L55.335 29.81L57.415 26.69L63.165 30.44L61.085 33.56ZM57.415 14.81L55.335 11.69L61.085 7.94L63.165 11.06L57.415 14.81Z" fill="#068BE4"/>
<path d="M32 7.625H33.875V13.25H32V7.625ZM32 28.25H33.875V33.875H32V28.25Z" fill="#CED3D9"/>
<path d="M32 45.125H45.125V48.875H32V45.125Z" fill="#0B0C12"/>
<path d="M32 11.375C26.825 11.375 22.625 15.575 22.625 20.75C22.625 25.925 26.825 30.125 32 30.125C37.175 30.125 41.375 25.925 41.375 20.75C41.375 15.575 37.175 11.375 32 11.375Z" fill="#E6EAF0"/>
<path d="M32 30.125V11.375C37.175 11.375 41.375 15.575 41.375 20.75C41.375 25.925 37.175 30.125 32 30.125Z" fill="#CED3D9"/>
<path d="M30.125 18.875H33.875V22.625H30.125V18.875Z" fill="#18A0FB"/>
<path d="M32 18.875H33.875V22.625H32V18.875Z" fill="#068BE4"/>
</svg>
