<svg width="64" height="64" viewBox="0 0 64 64" fill="none" xmlns="http://www.w3.org/2000/svg">
<path d="M64 0V41.25L60.25 45.125H3.75L0 41.25V0H64Z" fill="#242833"/>
<path d="M64 0V41.25L60.25 45.125H32V0H64Z" fill="#0B0C12"/>
<path d="M22.625 50.875H41.375V62.125H22.625V50.875Z" fill="#CED3D9"/>
<path d="M32 50.875H41.375V62.125H32V50.875Z" fill="#E6EAF0"/>
<path d="M0 41.25H64V52.75H0V41.25Z" fill="#E6EAF0"/>
<path d="M32 41.25H64V52.75H32V41.25Z" fill="#CED3D9"/>
<path d="M15.125 60.25H48.875V64H15.125V60.25Z" fill="#E6EAF0"/>
<path d="M32 60.25H48.875V64H32V60.25Z" fill="#CED3D9"/>
<path d="M20.75 7.5C13.514 7.5 7.625 13.389 7.625 20.625C7.625 27.861 13.514 33.75 20.75 33.75C27.986 33.75 33.875 27.861 33.875 20.625C33.875 13.389 27.986 7.5 20.75 7.5ZM20.75 26.25C19.2586 26.2484 17.8288 25.6553 16.7743 24.6007C15.7197 23.5462 15.1266 22.1164 15.125 20.625C15.1266 19.1336 15.7197 17.7038 16.7743 16.6493C17.8288 15.5947 19.2586 15.0016 20.75 15C22.2414 15.0016 23.6712 15.5947 24.7257 16.6493C25.7803 17.7038 26.3734 19.1336 26.375 20.625C26.3734 22.1164 25.7803 23.5462 24.7257 24.6007C23.6712 25.6553 22.2414 26.2484 20.75 26.25V26.25Z" fill="#18A0FB"/>
<path d="M45.125 7.5H56.5V11.25H45.125V7.5ZM37.625 7.5H41.375V11.25H37.625V7.5ZM45.125 22.5H56.5V26.25H45.125V22.5ZM37.625 22.5H41.375V26.25H37.625V22.5ZM37.625 15H56.5V18.75H37.625V15ZM37.625 30H56.5V33.75H37.625V30Z" fill="#068BE4"/>
</svg>
